<svg id="Layer_11" data-name="Layer 11" xmlns="http://www.w3.org/2000/svg" viewBox="0 0 203.81 198.78"><defs><style>.cls-1{fill:#ec1942;}</style></defs><title>logo new</title><path class="cls-1" d="M120.5,46.4h-4v94.83h4q4,0,4-4V50.35Q124.45,46.4,120.5,46.4Z"/><path class="cls-1" d="M150.59,141.23q4,0,4-4V82q0-4-4-4t-4,4v55.32Q146.64,141.23,150.59,141.23Z"/><path class="cls-1" d="M146.64,17.25V70.5a17.89,17.89,0,0,1,4-.4q11.85,0,11.85,11.85v55.32q0,11.85-11.85,11.85t-11.85-11.85V13.43a93.19,93.19,0,0,0-87.1,164V38.49h7.9V182A93.19,93.19,0,0,0,146.64,17.25ZM102.27,149.13h-7.9V71.68l-5.53,77.44H79.35L73.82,71.68v77.44h-7.9V38.49H80.14l4,55.32,4-55.32h14.22V149.13Zm30.09-11.85q0,11.85-11.85,11.85H108.65V38.49H120.5q11.85,0,11.85,11.85v86.93Z"/></svg>