<svg id="Layer_1" data-name="Layer 1" xmlns="http://www.w3.org/2000/svg" viewBox="0 0 96 96"><defs><style>.cls-1{fill:none;stroke:#fff;stroke-miterlimit:10;stroke-width:3px;}</style></defs><title>male-user</title><path class="cls-1" d="M92,85.85L59.07,67.77h0l0,0a1.78,1.78,0,0,1-.27-0.23,1.82,1.82,0,0,1-.31-0.25v0a2,2,0,0,1-.29-0.54c0-.05-0.06-0.1-0.08-0.15a2.1,2.1,0,0,1,0-.48,2,2,0,0,1,0-.29,2.08,2.08,0,0,1,.07-0.23,1.93,1.93,0,0,1,.16-0.51v0a22,22,0,0,0,.48-0.58C69.89,55.25,70,38.71,70,38.54V20.44C68.28,10.8,57.2,4.08,48.17,4H48c-9.06,0-20.26,6.74-22,16.44l0,18.1c0,0.16.15,16.74,11.28,25.91a1.93,1.93,0,0,1,.22.27,1.84,1.84,0,0,1,.26.31v0a1.88,1.88,0,0,1,.16.52,2,2,0,0,1,.07.23,2.24,2.24,0,0,1,0,.28,2,2,0,0,1,0,.48s-0.05.09-.07,0.13a1.91,1.91,0,0,1-.3.56v0a1.19,1.19,0,0,1-.11.09,2,2,0,0,1-.47.4L4,85.85v5A1.1,1.1,0,0,0,5.07,92H90.93A1.09,1.09,0,0,0,92,90.89v-5Z"/></svg>